<mxfile host="app.diagrams.net" modified="2021-07-20T07:44:25.427Z" agent="5.0 (Windows NT 10.0; Win64; x64) AppleWebKit/537.36 (KHTML, like Gecko) Chrome/91.0.4472.164 Safari/537.36" etag="JP-xBqJAGnmHKrF57rAa" version="14.9.0" type="github">
  <diagram id="Ab_suZJ3LESeuWqNRLi_" name="Page-1">
    <mxGraphModel dx="782" dy="1850" grid="1" gridSize="10" guides="1" tooltips="1" connect="1" arrows="1" fold="1" page="1" pageScale="1" pageWidth="827" pageHeight="1169" math="0" shadow="0">
      <root>
        <mxCell id="0" />
        <mxCell id="1" parent="0" />
        <mxCell id="U3KdIW2LympdB0SeKOEW-22" style="edgeStyle=orthogonalEdgeStyle;rounded=0;orthogonalLoop=1;jettySize=auto;html=1;entryX=-0.075;entryY=0.106;entryDx=0;entryDy=0;entryPerimeter=0;" parent="1" source="U3KdIW2LympdB0SeKOEW-1" target="U3KdIW2LympdB0SeKOEW-4" edge="1">
          <mxGeometry relative="1" as="geometry" />
        </mxCell>
        <mxCell id="U3KdIW2LympdB0SeKOEW-1" value="" style="points=[];aspect=fixed;html=1;align=center;shadow=0;dashed=0;image;image=img/lib/allied_telesis/computer_and_terminals/Personal_Computer.svg;" parent="1" vertex="1">
          <mxGeometry x="92.8" y="90" width="45.6" height="61.800000000000004" as="geometry" />
        </mxCell>
        <mxCell id="U3KdIW2LympdB0SeKOEW-23" style="edgeStyle=orthogonalEdgeStyle;rounded=0;orthogonalLoop=1;jettySize=auto;html=1;entryX=0.672;entryY=-0.018;entryDx=0;entryDy=0;entryPerimeter=0;" parent="1" source="U3KdIW2LympdB0SeKOEW-2" target="U3KdIW2LympdB0SeKOEW-4" edge="1">
          <mxGeometry relative="1" as="geometry" />
        </mxCell>
        <mxCell id="U3KdIW2LympdB0SeKOEW-2" value="" style="points=[];aspect=fixed;html=1;align=center;shadow=0;dashed=0;image;image=img/lib/allied_telesis/computer_and_terminals/Personal_Computer.svg;" parent="1" vertex="1">
          <mxGeometry x="165.6" y="90" width="45.6" height="61.800000000000004" as="geometry" />
        </mxCell>
        <mxCell id="U3KdIW2LympdB0SeKOEW-24" style="edgeStyle=orthogonalEdgeStyle;rounded=0;orthogonalLoop=1;jettySize=auto;html=1;entryX=0.995;entryY=0.106;entryDx=0;entryDy=0;entryPerimeter=0;" parent="1" source="U3KdIW2LympdB0SeKOEW-3" target="U3KdIW2LympdB0SeKOEW-4" edge="1">
          <mxGeometry relative="1" as="geometry" />
        </mxCell>
        <mxCell id="U3KdIW2LympdB0SeKOEW-3" value="" style="points=[];aspect=fixed;html=1;align=center;shadow=0;dashed=0;image;image=img/lib/allied_telesis/computer_and_terminals/Personal_Computer.svg;" parent="1" vertex="1">
          <mxGeometry x="240.70000000000002" y="90" width="45.6" height="61.800000000000004" as="geometry" />
        </mxCell>
        <mxCell id="U3KdIW2LympdB0SeKOEW-30" style="edgeStyle=orthogonalEdgeStyle;rounded=0;orthogonalLoop=1;jettySize=auto;html=1;" parent="1" source="U3KdIW2LympdB0SeKOEW-4" target="U3KdIW2LympdB0SeKOEW-28" edge="1">
          <mxGeometry relative="1" as="geometry" />
        </mxCell>
        <mxCell id="U3KdIW2LympdB0SeKOEW-4" value="" style="points=[];aspect=fixed;html=1;align=center;shadow=0;dashed=0;image;image=img/lib/allied_telesis/switch/Industrial_Ethernet_IE200.svg;" parent="1" vertex="1">
          <mxGeometry x="165.6" y="210" width="40.2" height="56.4" as="geometry" />
        </mxCell>
        <mxCell id="U3KdIW2LympdB0SeKOEW-8" value="CNC Machines" style="text;html=1;align=center;verticalAlign=middle;resizable=0;points=[];autosize=1;strokeColor=none;" parent="1" vertex="1">
          <mxGeometry x="135.7" y="70" width="100" height="20" as="geometry" />
        </mxCell>
        <mxCell id="U3KdIW2LympdB0SeKOEW-9" value="HUB / SWITCH" style="text;html=1;align=center;verticalAlign=middle;resizable=0;points=[];autosize=1;strokeColor=none;" parent="1" vertex="1">
          <mxGeometry x="65.6" y="228.19999999999996" width="100" height="20" as="geometry" />
        </mxCell>
        <mxCell id="U3KdIW2LympdB0SeKOEW-25" style="edgeStyle=orthogonalEdgeStyle;rounded=0;orthogonalLoop=1;jettySize=auto;html=1;entryX=0.224;entryY=0;entryDx=0;entryDy=0;entryPerimeter=0;" parent="1" source="U3KdIW2LympdB0SeKOEW-10" target="U3KdIW2LympdB0SeKOEW-15" edge="1">
          <mxGeometry relative="1" as="geometry" />
        </mxCell>
        <mxCell id="U3KdIW2LympdB0SeKOEW-10" value="" style="points=[];aspect=fixed;html=1;align=center;shadow=0;dashed=0;image;image=img/lib/allied_telesis/computer_and_terminals/Personal_Computer.svg;" parent="1" vertex="1">
          <mxGeometry x="359.6" y="90" width="45.6" height="61.800000000000004" as="geometry" />
        </mxCell>
        <mxCell id="U3KdIW2LympdB0SeKOEW-32" style="edgeStyle=orthogonalEdgeStyle;rounded=0;orthogonalLoop=1;jettySize=auto;html=1;entryX=0.632;entryY=-0.035;entryDx=0;entryDy=0;entryPerimeter=0;" parent="1" source="U3KdIW2LympdB0SeKOEW-12" target="U3KdIW2LympdB0SeKOEW-15" edge="1">
          <mxGeometry relative="1" as="geometry">
            <Array as="points">
              <mxPoint x="462" y="181" />
              <mxPoint x="450" y="181" />
              <mxPoint x="450" y="208" />
            </Array>
          </mxGeometry>
        </mxCell>
        <mxCell id="U3KdIW2LympdB0SeKOEW-12" value="" style="points=[];aspect=fixed;html=1;align=center;shadow=0;dashed=0;image;image=img/lib/allied_telesis/computer_and_terminals/Personal_Computer.svg;" parent="1" vertex="1">
          <mxGeometry x="439.6" y="90" width="45.6" height="61.800000000000004" as="geometry" />
        </mxCell>
        <mxCell id="U3KdIW2LympdB0SeKOEW-54" style="edgeStyle=orthogonalEdgeStyle;rounded=0;orthogonalLoop=1;jettySize=auto;html=1;" parent="1" source="U3KdIW2LympdB0SeKOEW-14" target="U3KdIW2LympdB0SeKOEW-15" edge="1">
          <mxGeometry relative="1" as="geometry">
            <Array as="points">
              <mxPoint x="323" y="170" />
              <mxPoint x="440" y="170" />
            </Array>
          </mxGeometry>
        </mxCell>
        <mxCell id="U3KdIW2LympdB0SeKOEW-14" value="" style="points=[];aspect=fixed;html=1;align=center;shadow=0;dashed=0;image;image=img/lib/allied_telesis/computer_and_terminals/Personal_Computer.svg;" parent="1" vertex="1">
          <mxGeometry x="300" y="90" width="45.6" height="61.800000000000004" as="geometry" />
        </mxCell>
        <mxCell id="U3KdIW2LympdB0SeKOEW-31" style="edgeStyle=orthogonalEdgeStyle;rounded=0;orthogonalLoop=1;jettySize=auto;html=1;" parent="1" source="U3KdIW2LympdB0SeKOEW-15" target="U3KdIW2LympdB0SeKOEW-28" edge="1">
          <mxGeometry relative="1" as="geometry" />
        </mxCell>
        <mxCell id="U3KdIW2LympdB0SeKOEW-15" value="" style="points=[];aspect=fixed;html=1;align=center;shadow=0;dashed=0;image;image=img/lib/allied_telesis/switch/Industrial_Ethernet_IE200.svg;" parent="1" vertex="1">
          <mxGeometry x="400" y="199.5" width="40.2" height="56.4" as="geometry" />
        </mxCell>
        <mxCell id="U3KdIW2LympdB0SeKOEW-17" value="CNC Machines" style="text;html=1;align=center;verticalAlign=middle;resizable=0;points=[];autosize=1;strokeColor=none;" parent="1" vertex="1">
          <mxGeometry x="339.6" y="70" width="100" height="20" as="geometry" />
        </mxCell>
        <mxCell id="U3KdIW2LympdB0SeKOEW-18" value="HUB" style="text;html=1;align=center;verticalAlign=middle;resizable=0;points=[];autosize=1;strokeColor=none;" parent="1" vertex="1">
          <mxGeometry x="449.2" y="200" width="40" height="20" as="geometry" />
        </mxCell>
        <mxCell id="U3KdIW2LympdB0SeKOEW-28" value="" style="points=[];aspect=fixed;html=1;align=center;shadow=0;dashed=0;image;image=img/lib/allied_telesis/switch/Industrial_Ethernet_IE300.svg;" parent="1" vertex="1">
          <mxGeometry x="290" y="199.5" width="69.6" height="77.4" as="geometry" />
        </mxCell>
        <mxCell id="U3KdIW2LympdB0SeKOEW-33" value="Core Switch" style="text;html=1;align=center;verticalAlign=middle;resizable=0;points=[];autosize=1;strokeColor=none;" parent="1" vertex="1">
          <mxGeometry x="279.6" y="180" width="80" height="20" as="geometry" />
        </mxCell>
        <mxCell id="U3KdIW2LympdB0SeKOEW-37" style="edgeStyle=orthogonalEdgeStyle;rounded=0;orthogonalLoop=1;jettySize=auto;html=1;entryX=0.035;entryY=0.443;entryDx=0;entryDy=0;entryPerimeter=0;" parent="1" source="U3KdIW2LympdB0SeKOEW-34" target="U3KdIW2LympdB0SeKOEW-36" edge="1">
          <mxGeometry relative="1" as="geometry" />
        </mxCell>
        <mxCell id="U3KdIW2LympdB0SeKOEW-34" value="" style="points=[];aspect=fixed;html=1;align=center;shadow=0;dashed=0;image;image=img/lib/allied_telesis/computer_and_terminals/Personal_Computer_with_Server.svg;" parent="1" vertex="1">
          <mxGeometry x="65.59999999999997" y="300" width="62.400000000000006" height="62.400000000000006" as="geometry" />
        </mxCell>
        <mxCell id="U3KdIW2LympdB0SeKOEW-46" style="edgeStyle=orthogonalEdgeStyle;rounded=0;orthogonalLoop=1;jettySize=auto;html=1;entryX=-0.043;entryY=0.82;entryDx=0;entryDy=0;entryPerimeter=0;" parent="1" source="U3KdIW2LympdB0SeKOEW-36" target="U3KdIW2LympdB0SeKOEW-28" edge="1">
          <mxGeometry relative="1" as="geometry" />
        </mxCell>
        <mxCell id="U3KdIW2LympdB0SeKOEW-36" value="" style="points=[];aspect=fixed;html=1;align=center;shadow=0;dashed=0;image;image=img/lib/allied_telesis/switch/Industrial_Ethernet_IE200.svg;" parent="1" vertex="1">
          <mxGeometry x="200.5" y="290" width="40.2" height="56.4" as="geometry" />
        </mxCell>
        <mxCell id="U3KdIW2LympdB0SeKOEW-39" value="HUB /SWITCH" style="text;html=1;align=center;verticalAlign=middle;resizable=0;points=[];autosize=1;strokeColor=none;" parent="1" vertex="1">
          <mxGeometry x="165.6" y="349.59999999999997" width="90" height="20" as="geometry" />
        </mxCell>
        <mxCell id="U3KdIW2LympdB0SeKOEW-40" value="APPLICATION SERVER" style="text;html=1;align=center;verticalAlign=middle;resizable=0;points=[];autosize=1;strokeColor=none;" parent="1" vertex="1">
          <mxGeometry x="40" y="280" width="150" height="20" as="geometry" />
        </mxCell>
        <mxCell id="U3KdIW2LympdB0SeKOEW-42" style="edgeStyle=orthogonalEdgeStyle;rounded=0;orthogonalLoop=1;jettySize=auto;html=1;" parent="1" source="U3KdIW2LympdB0SeKOEW-41" edge="1">
          <mxGeometry relative="1" as="geometry">
            <mxPoint x="350" y="270" as="targetPoint" />
            <Array as="points">
              <mxPoint x="348" y="300" />
              <mxPoint x="350" y="300" />
            </Array>
          </mxGeometry>
        </mxCell>
        <mxCell id="U3KdIW2LympdB0SeKOEW-48" style="edgeStyle=orthogonalEdgeStyle;rounded=0;orthogonalLoop=1;jettySize=auto;html=1;entryX=-0.066;entryY=0.465;entryDx=0;entryDy=0;entryPerimeter=0;" parent="1" source="U3KdIW2LympdB0SeKOEW-41" target="U3KdIW2LympdB0SeKOEW-47" edge="1">
          <mxGeometry relative="1" as="geometry" />
        </mxCell>
        <mxCell id="U3KdIW2LympdB0SeKOEW-41" value="" style="points=[];aspect=fixed;html=1;align=center;shadow=0;dashed=0;image;image=img/lib/allied_telesis/security/Router_VPN.svg;" parent="1" vertex="1">
          <mxGeometry x="320" y="330" width="55.800000000000004" height="39.6" as="geometry" />
        </mxCell>
        <mxCell id="U3KdIW2LympdB0SeKOEW-43" value="Firewall" style="text;html=1;align=center;verticalAlign=middle;resizable=0;points=[];autosize=1;strokeColor=none;" parent="1" vertex="1">
          <mxGeometry x="340" y="380" width="60" height="20" as="geometry" />
        </mxCell>
        <mxCell id="U3KdIW2LympdB0SeKOEW-51" style="edgeStyle=orthogonalEdgeStyle;rounded=0;orthogonalLoop=1;jettySize=auto;html=1;entryX=-0.058;entryY=0.496;entryDx=0;entryDy=0;entryPerimeter=0;" parent="1" source="U3KdIW2LympdB0SeKOEW-47" target="U3KdIW2LympdB0SeKOEW-50" edge="1">
          <mxGeometry relative="1" as="geometry" />
        </mxCell>
        <mxCell id="U3KdIW2LympdB0SeKOEW-55" style="edgeStyle=orthogonalEdgeStyle;rounded=0;orthogonalLoop=1;jettySize=auto;html=1;" parent="1" source="U3KdIW2LympdB0SeKOEW-47" target="U3KdIW2LympdB0SeKOEW-53" edge="1">
          <mxGeometry relative="1" as="geometry">
            <Array as="points">
              <mxPoint x="454" y="230" />
              <mxPoint x="510" y="230" />
              <mxPoint x="510" y="80" />
            </Array>
          </mxGeometry>
        </mxCell>
        <mxCell id="U3KdIW2LympdB0SeKOEW-47" value="" style="points=[];aspect=fixed;html=1;align=center;shadow=0;dashed=0;image;image=img/lib/allied_telesis/switch/Industrial_Ethernet_IE300.svg;" parent="1" vertex="1">
          <mxGeometry x="419.6" y="280" width="69.6" height="77.4" as="geometry" />
        </mxCell>
        <mxCell id="U3KdIW2LympdB0SeKOEW-49" value="DMZ Switch" style="text;html=1;align=center;verticalAlign=middle;resizable=0;points=[];autosize=1;strokeColor=none;" parent="1" vertex="1">
          <mxGeometry x="414" y="360" width="80" height="20" as="geometry" />
        </mxCell>
        <mxCell id="U3KdIW2LympdB0SeKOEW-50" value="" style="points=[];aspect=fixed;html=1;align=center;shadow=0;dashed=0;image;image=img/lib/allied_telesis/storage/Datacenter_Server_Rack_EoR.svg;" parent="1" vertex="1">
          <mxGeometry x="530" y="255.9" width="85.8" height="173.4" as="geometry" />
        </mxCell>
        <mxCell id="U3KdIW2LympdB0SeKOEW-52" value="WEB SERVER" style="text;html=1;align=center;verticalAlign=middle;resizable=0;points=[];autosize=1;strokeColor=none;" parent="1" vertex="1">
          <mxGeometry x="522.9" y="228.2" width="100" height="20" as="geometry" />
        </mxCell>
        <mxCell id="U3KdIW2LympdB0SeKOEW-53" value="" style="points=[];aspect=fixed;html=1;align=center;shadow=0;dashed=0;image;image=img/lib/allied_telesis/storage/Datacenter_Server_Rack_EoR.svg;" parent="1" vertex="1">
          <mxGeometry x="524.2" y="-6.7000000000000055" width="85.8" height="173.4" as="geometry" />
        </mxCell>
        <mxCell id="U3KdIW2LympdB0SeKOEW-56" value="Proxy Server&lt;br&gt;" style="text;html=1;align=center;verticalAlign=middle;resizable=0;points=[];autosize=1;strokeColor=none;" parent="1" vertex="1">
          <mxGeometry x="535.8" y="166.7" width="80" height="20" as="geometry" />
        </mxCell>
      </root>
    </mxGraphModel>
  </diagram>
</mxfile>
